<mxfile host="app.diagrams.net" modified="2021-05-12T19:55:53.603Z" agent="5.0 (Macintosh; Intel Mac OS X 10_15_7) AppleWebKit/537.36 (KHTML, like Gecko) Chrome/90.0.4430.93 Safari/537.36" etag="PDeVSIeMKSm6YvUujeA9" version="14.6.12" type="github" pages="2">
  <diagram id="h63RiIsngvw4Spw11tlH" name="Webpage big screen">
    <mxGraphModel dx="946" dy="460" grid="1" gridSize="10" guides="1" tooltips="1" connect="1" arrows="1" fold="1" page="1" pageScale="1" pageWidth="1100" pageHeight="1700" math="0" shadow="0">
      <root>
        <mxCell id="0" />
        <mxCell id="1" parent="0" />
        <mxCell id="UX8QNiUzuCXV589lkSou-1" value="" style="strokeWidth=1;shadow=0;dashed=0;align=center;html=1;shape=mxgraph.mockup.containers.browserWindow;rSize=0;strokeColor=#666666;strokeColor2=#008cff;strokeColor3=#c4c4c4;mainText=,;recursiveResize=0;" vertex="1" parent="1">
          <mxGeometry x="80" y="20" width="790" height="540" as="geometry" />
        </mxCell>
        <mxCell id="UX8QNiUzuCXV589lkSou-2" value="Recipe Island" style="strokeWidth=1;shadow=0;dashed=0;align=center;html=1;shape=mxgraph.mockup.containers.anchor;fontSize=17;fontColor=#666666;align=left;" vertex="1" parent="UX8QNiUzuCXV589lkSou-1">
          <mxGeometry x="60" y="12" width="110" height="26" as="geometry" />
        </mxCell>
        <mxCell id="UX8QNiUzuCXV589lkSou-3" value="https://milestone-project-03.herokuapp.com/" style="strokeWidth=1;shadow=0;dashed=0;align=center;html=1;shape=mxgraph.mockup.containers.anchor;rSize=0;fontSize=17;fontColor=#666666;align=left;" vertex="1" parent="UX8QNiUzuCXV589lkSou-1">
          <mxGeometry x="130" y="60" width="250" height="26" as="geometry" />
        </mxCell>
        <mxCell id="UX8QNiUzuCXV589lkSou-4" value="Logo" style="html=1;shadow=0;dashed=0;fillColor=#647687;strokeColor=#314354;fontSize=16;align=left;spacing=15;fontColor=#ffffff;" vertex="1" parent="UX8QNiUzuCXV589lkSou-1">
          <mxGeometry y="110" width="780" height="50" as="geometry" />
        </mxCell>
        <mxCell id="UX8QNiUzuCXV589lkSou-5" value="Home" style="fillColor=none;strokeColor=none;fontSize=14;align=center;fontColor=#80FF00;" vertex="1" parent="UX8QNiUzuCXV589lkSou-4">
          <mxGeometry width="70" height="40" relative="1" as="geometry">
            <mxPoint x="390" y="5" as="offset" />
          </mxGeometry>
        </mxCell>
        <mxCell id="UX8QNiUzuCXV589lkSou-6" value="Recipies" style="fillColor=none;strokeColor=none;fontSize=14;fontColor=#9A9DA0;align=center;" vertex="1" parent="UX8QNiUzuCXV589lkSou-4">
          <mxGeometry width="70" height="40" relative="1" as="geometry">
            <mxPoint x="450" y="5" as="offset" />
          </mxGeometry>
        </mxCell>
        <mxCell id="UX8QNiUzuCXV589lkSou-7" value="Profile" style="fillColor=none;strokeColor=none;fontSize=14;fontColor=#9A9DA0;align=center;spacingRight=0;" vertex="1" parent="UX8QNiUzuCXV589lkSou-4">
          <mxGeometry width="80" height="40" relative="1" as="geometry">
            <mxPoint x="510" y="5" as="offset" />
          </mxGeometry>
        </mxCell>
        <mxCell id="UX8QNiUzuCXV589lkSou-8" value="Login" style="fillColor=none;strokeColor=none;fontSize=14;align=center;fontColor=#80FF00;" vertex="1" parent="UX8QNiUzuCXV589lkSou-4">
          <mxGeometry width="80" height="40" relative="1" as="geometry">
            <mxPoint x="570" y="5" as="offset" />
          </mxGeometry>
        </mxCell>
        <mxCell id="UX8QNiUzuCXV589lkSou-9" value="Log out" style="fillColor=none;strokeColor=none;fontSize=14;align=center;fontColor=#FF0000;" vertex="1" parent="UX8QNiUzuCXV589lkSou-4">
          <mxGeometry x="700" y="5" width="80" height="40" as="geometry" />
        </mxCell>
        <mxCell id="UX8QNiUzuCXV589lkSou-10" value="Register" style="fillColor=none;strokeColor=none;fontSize=14;align=center;fontColor=#FF0000;" vertex="1" parent="UX8QNiUzuCXV589lkSou-4">
          <mxGeometry x="630" y="5" width="80" height="40" as="geometry" />
        </mxCell>
        <mxCell id="UX8QNiUzuCXV589lkSou-11" value="&lt;h1&gt;Heading&lt;/h1&gt;&lt;p&gt;Lorem ipsum dolor sit amet, consectetur adipisicing elit, sed do eiusmod tempor incididunt ut labore et dolore magna aliqua.&lt;/p&gt;" style="text;html=1;strokeColor=none;fillColor=none;spacing=5;spacingTop=-20;whiteSpace=wrap;overflow=hidden;rounded=0;" vertex="1" parent="UX8QNiUzuCXV589lkSou-1">
          <mxGeometry x="250" y="260" width="380" height="120" as="geometry" />
        </mxCell>
        <mxCell id="UX8QNiUzuCXV589lkSou-12" value="HOME" style="text;html=1;strokeColor=none;fillColor=none;align=center;verticalAlign=middle;whiteSpace=wrap;rounded=0;fontStyle=5;fontColor=#1A1A1A;" vertex="1" parent="UX8QNiUzuCXV589lkSou-1">
          <mxGeometry x="370" y="180" width="40" height="20" as="geometry" />
        </mxCell>
        <mxCell id="UX8QNiUzuCXV589lkSou-15" value="" style="rounded=1;whiteSpace=wrap;html=1;fontColor=#FF3399;" vertex="1" parent="UX8QNiUzuCXV589lkSou-1">
          <mxGeometry x="5" y="503" width="780" height="30" as="geometry" />
        </mxCell>
        <mxCell id="UX8QNiUzuCXV589lkSou-16" value="Copyright text" style="text;html=1;strokeColor=none;fillColor=none;align=center;verticalAlign=middle;whiteSpace=wrap;rounded=0;fontColor=#1A1A1A;" vertex="1" parent="UX8QNiUzuCXV589lkSou-1">
          <mxGeometry x="35" y="508" width="150" height="20" as="geometry" />
        </mxCell>
        <mxCell id="UX8QNiUzuCXV589lkSou-17" value="Social Media links" style="text;html=1;strokeColor=none;fillColor=none;align=center;verticalAlign=middle;whiteSpace=wrap;rounded=0;fontColor=#1A1A1A;" vertex="1" parent="UX8QNiUzuCXV589lkSou-1">
          <mxGeometry x="620" y="508" width="150" height="20" as="geometry" />
        </mxCell>
        <mxCell id="UX8QNiUzuCXV589lkSou-18" value="Footer" style="text;html=1;strokeColor=none;fillColor=none;align=center;verticalAlign=middle;whiteSpace=wrap;rounded=0;fontStyle=5;fontColor=#1A1A1A;" vertex="1" parent="UX8QNiUzuCXV589lkSou-1">
          <mxGeometry x="355" y="500" width="40" height="20" as="geometry" />
        </mxCell>
        <mxCell id="UX8QNiUzuCXV589lkSou-19" value="HERO VIDEO in background" style="text;html=1;strokeColor=none;fillColor=none;align=center;verticalAlign=middle;whiteSpace=wrap;rounded=0;fontColor=#1A1A1A;" vertex="1" parent="UX8QNiUzuCXV589lkSou-1">
          <mxGeometry x="300" y="220" width="170" height="20" as="geometry" />
        </mxCell>
        <mxCell id="UX8QNiUzuCXV589lkSou-20" value="" style="strokeWidth=1;shadow=0;dashed=0;align=center;html=1;shape=mxgraph.mockup.containers.browserWindow;rSize=0;strokeColor=#666666;strokeColor2=#008cff;strokeColor3=#c4c4c4;mainText=,;recursiveResize=0;" vertex="1" parent="1">
          <mxGeometry x="80" y="580" width="790" height="540" as="geometry" />
        </mxCell>
        <mxCell id="UX8QNiUzuCXV589lkSou-21" value="Recipe Island" style="strokeWidth=1;shadow=0;dashed=0;align=center;html=1;shape=mxgraph.mockup.containers.anchor;fontSize=17;fontColor=#666666;align=left;" vertex="1" parent="UX8QNiUzuCXV589lkSou-20">
          <mxGeometry x="60" y="12" width="110" height="26" as="geometry" />
        </mxCell>
        <mxCell id="UX8QNiUzuCXV589lkSou-22" value="https://milestone-project-03.herokuapp.com/" style="strokeWidth=1;shadow=0;dashed=0;align=center;html=1;shape=mxgraph.mockup.containers.anchor;rSize=0;fontSize=17;fontColor=#666666;align=left;" vertex="1" parent="UX8QNiUzuCXV589lkSou-20">
          <mxGeometry x="130" y="60" width="250" height="26" as="geometry" />
        </mxCell>
        <mxCell id="UX8QNiUzuCXV589lkSou-23" value="Logo" style="html=1;shadow=0;dashed=0;fillColor=#647687;strokeColor=#314354;fontSize=16;align=left;spacing=15;fontColor=#ffffff;" vertex="1" parent="UX8QNiUzuCXV589lkSou-20">
          <mxGeometry y="110" width="780" height="50" as="geometry" />
        </mxCell>
        <mxCell id="UX8QNiUzuCXV589lkSou-24" value="Home" style="fillColor=none;strokeColor=none;fontSize=14;align=center;fontColor=#80FF00;" vertex="1" parent="UX8QNiUzuCXV589lkSou-23">
          <mxGeometry width="70" height="40" relative="1" as="geometry">
            <mxPoint x="390" y="5" as="offset" />
          </mxGeometry>
        </mxCell>
        <mxCell id="UX8QNiUzuCXV589lkSou-25" value="Recipies" style="fillColor=none;strokeColor=none;fontSize=14;fontColor=#9A9DA0;align=center;" vertex="1" parent="UX8QNiUzuCXV589lkSou-23">
          <mxGeometry width="70" height="40" relative="1" as="geometry">
            <mxPoint x="450" y="5" as="offset" />
          </mxGeometry>
        </mxCell>
        <mxCell id="UX8QNiUzuCXV589lkSou-26" value="Profile" style="fillColor=none;strokeColor=none;fontSize=14;fontColor=#9A9DA0;align=center;spacingRight=0;" vertex="1" parent="UX8QNiUzuCXV589lkSou-23">
          <mxGeometry width="80" height="40" relative="1" as="geometry">
            <mxPoint x="510" y="5" as="offset" />
          </mxGeometry>
        </mxCell>
        <mxCell id="UX8QNiUzuCXV589lkSou-27" value="Login" style="fillColor=none;strokeColor=none;fontSize=14;align=center;fontColor=#80FF00;" vertex="1" parent="UX8QNiUzuCXV589lkSou-23">
          <mxGeometry width="80" height="40" relative="1" as="geometry">
            <mxPoint x="570" y="5" as="offset" />
          </mxGeometry>
        </mxCell>
        <mxCell id="UX8QNiUzuCXV589lkSou-28" value="Log out" style="fillColor=none;strokeColor=none;fontSize=14;align=center;fontColor=#FF0000;" vertex="1" parent="UX8QNiUzuCXV589lkSou-23">
          <mxGeometry x="700" y="5" width="80" height="40" as="geometry" />
        </mxCell>
        <mxCell id="UX8QNiUzuCXV589lkSou-29" value="Register" style="fillColor=none;strokeColor=none;fontSize=14;align=center;fontColor=#FF0000;" vertex="1" parent="UX8QNiUzuCXV589lkSou-23">
          <mxGeometry x="630" y="5" width="80" height="40" as="geometry" />
        </mxCell>
        <mxCell id="UX8QNiUzuCXV589lkSou-31" value="Recipes" style="text;html=1;strokeColor=none;fillColor=none;align=center;verticalAlign=middle;whiteSpace=wrap;rounded=0;fontStyle=5;fontColor=#1A1A1A;" vertex="1" parent="UX8QNiUzuCXV589lkSou-20">
          <mxGeometry x="370" y="180" width="40" height="20" as="geometry" />
        </mxCell>
        <mxCell id="UX8QNiUzuCXV589lkSou-32" value="" style="rounded=1;whiteSpace=wrap;html=1;fontColor=#FF3399;" vertex="1" parent="UX8QNiUzuCXV589lkSou-20">
          <mxGeometry x="5" y="503" width="780" height="30" as="geometry" />
        </mxCell>
        <mxCell id="UX8QNiUzuCXV589lkSou-33" value="Copyright text" style="text;html=1;strokeColor=none;fillColor=none;align=center;verticalAlign=middle;whiteSpace=wrap;rounded=0;fontColor=#1A1A1A;" vertex="1" parent="UX8QNiUzuCXV589lkSou-20">
          <mxGeometry x="35" y="508" width="150" height="20" as="geometry" />
        </mxCell>
        <mxCell id="UX8QNiUzuCXV589lkSou-34" value="Social Media links" style="text;html=1;strokeColor=none;fillColor=none;align=center;verticalAlign=middle;whiteSpace=wrap;rounded=0;fontColor=#1A1A1A;" vertex="1" parent="UX8QNiUzuCXV589lkSou-20">
          <mxGeometry x="620" y="508" width="150" height="20" as="geometry" />
        </mxCell>
        <mxCell id="UX8QNiUzuCXV589lkSou-35" value="Footer" style="text;html=1;strokeColor=none;fillColor=none;align=center;verticalAlign=middle;whiteSpace=wrap;rounded=0;fontStyle=5;fontColor=#1A1A1A;" vertex="1" parent="UX8QNiUzuCXV589lkSou-20">
          <mxGeometry x="355" y="500" width="40" height="20" as="geometry" />
        </mxCell>
        <mxCell id="UX8QNiUzuCXV589lkSou-37" value="" style="verticalLabelPosition=bottom;shadow=0;dashed=0;align=center;html=1;verticalAlign=top;strokeWidth=1;shape=mxgraph.mockup.graphics.simpleIcon;strokeColor=#999999;fontColor=#1A1A1A;" vertex="1" parent="UX8QNiUzuCXV589lkSou-20">
          <mxGeometry x="130" y="220" width="540" height="50" as="geometry" />
        </mxCell>
        <mxCell id="UX8QNiUzuCXV589lkSou-38" value="Search bar" style="text;html=1;strokeColor=none;fillColor=none;align=center;verticalAlign=middle;whiteSpace=wrap;rounded=0;fontStyle=5;fontColor=#1A1A1A;" vertex="1" parent="UX8QNiUzuCXV589lkSou-20">
          <mxGeometry x="345" y="270" width="100" height="20" as="geometry" />
        </mxCell>
        <mxCell id="UX8QNiUzuCXV589lkSou-39" value="" style="verticalLabelPosition=bottom;shadow=0;dashed=0;align=center;html=1;verticalAlign=top;strokeWidth=1;shape=mxgraph.mockup.graphics.simpleIcon;strokeColor=#999999;fontColor=#1A1A1A;" vertex="1" parent="UX8QNiUzuCXV589lkSou-20">
          <mxGeometry x="130" y="330" width="160" height="130" as="geometry" />
        </mxCell>
        <mxCell id="UX8QNiUzuCXV589lkSou-40" value="" style="verticalLabelPosition=bottom;shadow=0;dashed=0;align=center;html=1;verticalAlign=top;strokeWidth=1;shape=mxgraph.mockup.graphics.simpleIcon;strokeColor=#999999;fontColor=#1A1A1A;" vertex="1" parent="UX8QNiUzuCXV589lkSou-20">
          <mxGeometry x="330" y="330" width="160" height="130" as="geometry" />
        </mxCell>
        <mxCell id="UX8QNiUzuCXV589lkSou-41" value="" style="verticalLabelPosition=bottom;shadow=0;dashed=0;align=center;html=1;verticalAlign=top;strokeWidth=1;shape=mxgraph.mockup.graphics.simpleIcon;strokeColor=#999999;fontColor=#1A1A1A;" vertex="1" parent="UX8QNiUzuCXV589lkSou-20">
          <mxGeometry x="510" y="330" width="160" height="130" as="geometry" />
        </mxCell>
        <mxCell id="UX8QNiUzuCXV589lkSou-42" value="Recipe cards" style="text;html=1;strokeColor=none;fillColor=none;align=center;verticalAlign=middle;whiteSpace=wrap;rounded=0;fontStyle=5;fontColor=#1A1A1A;" vertex="1" parent="UX8QNiUzuCXV589lkSou-20">
          <mxGeometry x="355" y="460" width="100" height="20" as="geometry" />
        </mxCell>
        <mxCell id="UX8QNiUzuCXV589lkSou-43" value="" style="strokeWidth=1;shadow=0;dashed=0;align=center;html=1;shape=mxgraph.mockup.containers.browserWindow;rSize=0;strokeColor=#666666;strokeColor2=#008cff;strokeColor3=#c4c4c4;mainText=,;recursiveResize=0;" vertex="1" parent="1">
          <mxGeometry x="80" y="1160" width="790" height="540" as="geometry" />
        </mxCell>
        <mxCell id="UX8QNiUzuCXV589lkSou-44" value="Recipe Island" style="strokeWidth=1;shadow=0;dashed=0;align=center;html=1;shape=mxgraph.mockup.containers.anchor;fontSize=17;fontColor=#666666;align=left;" vertex="1" parent="UX8QNiUzuCXV589lkSou-43">
          <mxGeometry x="60" y="12" width="110" height="26" as="geometry" />
        </mxCell>
        <mxCell id="UX8QNiUzuCXV589lkSou-45" value="https://milestone-project-03.herokuapp.com/" style="strokeWidth=1;shadow=0;dashed=0;align=center;html=1;shape=mxgraph.mockup.containers.anchor;rSize=0;fontSize=17;fontColor=#666666;align=left;" vertex="1" parent="UX8QNiUzuCXV589lkSou-43">
          <mxGeometry x="130" y="60" width="250" height="26" as="geometry" />
        </mxCell>
        <mxCell id="UX8QNiUzuCXV589lkSou-46" value="Logo" style="html=1;shadow=0;dashed=0;fillColor=#647687;strokeColor=#314354;fontSize=16;align=left;spacing=15;fontColor=#ffffff;" vertex="1" parent="UX8QNiUzuCXV589lkSou-43">
          <mxGeometry y="110" width="780" height="50" as="geometry" />
        </mxCell>
        <mxCell id="UX8QNiUzuCXV589lkSou-47" value="Home" style="fillColor=none;strokeColor=none;fontSize=14;align=center;fontColor=#80FF00;" vertex="1" parent="UX8QNiUzuCXV589lkSou-46">
          <mxGeometry width="70" height="40" relative="1" as="geometry">
            <mxPoint x="390" y="5" as="offset" />
          </mxGeometry>
        </mxCell>
        <mxCell id="UX8QNiUzuCXV589lkSou-48" value="Recipies" style="fillColor=none;strokeColor=none;fontSize=14;fontColor=#9A9DA0;align=center;" vertex="1" parent="UX8QNiUzuCXV589lkSou-46">
          <mxGeometry width="70" height="40" relative="1" as="geometry">
            <mxPoint x="450" y="5" as="offset" />
          </mxGeometry>
        </mxCell>
        <mxCell id="UX8QNiUzuCXV589lkSou-49" value="Profile" style="fillColor=none;strokeColor=none;fontSize=14;fontColor=#9A9DA0;align=center;spacingRight=0;" vertex="1" parent="UX8QNiUzuCXV589lkSou-46">
          <mxGeometry width="80" height="40" relative="1" as="geometry">
            <mxPoint x="510" y="5" as="offset" />
          </mxGeometry>
        </mxCell>
        <mxCell id="UX8QNiUzuCXV589lkSou-50" value="Login" style="fillColor=none;strokeColor=none;fontSize=14;align=center;fontColor=#80FF00;" vertex="1" parent="UX8QNiUzuCXV589lkSou-46">
          <mxGeometry width="80" height="40" relative="1" as="geometry">
            <mxPoint x="570" y="5" as="offset" />
          </mxGeometry>
        </mxCell>
        <mxCell id="UX8QNiUzuCXV589lkSou-51" value="Log out" style="fillColor=none;strokeColor=none;fontSize=14;align=center;fontColor=#FF0000;" vertex="1" parent="UX8QNiUzuCXV589lkSou-46">
          <mxGeometry x="700" y="5" width="80" height="40" as="geometry" />
        </mxCell>
        <mxCell id="UX8QNiUzuCXV589lkSou-52" value="Register" style="fillColor=none;strokeColor=none;fontSize=14;align=center;fontColor=#FF0000;" vertex="1" parent="UX8QNiUzuCXV589lkSou-46">
          <mxGeometry x="630" y="5" width="80" height="40" as="geometry" />
        </mxCell>
        <mxCell id="UX8QNiUzuCXV589lkSou-53" value="Recipe Details" style="text;html=1;strokeColor=none;fillColor=none;align=center;verticalAlign=middle;whiteSpace=wrap;rounded=0;fontStyle=5;fontColor=#1A1A1A;" vertex="1" parent="UX8QNiUzuCXV589lkSou-43">
          <mxGeometry x="350" y="180" width="100" height="20" as="geometry" />
        </mxCell>
        <mxCell id="UX8QNiUzuCXV589lkSou-54" value="" style="rounded=1;whiteSpace=wrap;html=1;fontColor=#FF3399;" vertex="1" parent="UX8QNiUzuCXV589lkSou-43">
          <mxGeometry x="5" y="503" width="780" height="30" as="geometry" />
        </mxCell>
        <mxCell id="UX8QNiUzuCXV589lkSou-55" value="Copyright text" style="text;html=1;strokeColor=none;fillColor=none;align=center;verticalAlign=middle;whiteSpace=wrap;rounded=0;fontColor=#1A1A1A;" vertex="1" parent="UX8QNiUzuCXV589lkSou-43">
          <mxGeometry x="35" y="508" width="150" height="20" as="geometry" />
        </mxCell>
        <mxCell id="UX8QNiUzuCXV589lkSou-56" value="Social Media links" style="text;html=1;strokeColor=none;fillColor=none;align=center;verticalAlign=middle;whiteSpace=wrap;rounded=0;fontColor=#1A1A1A;" vertex="1" parent="UX8QNiUzuCXV589lkSou-43">
          <mxGeometry x="620" y="508" width="150" height="20" as="geometry" />
        </mxCell>
        <mxCell id="UX8QNiUzuCXV589lkSou-57" value="Footer" style="text;html=1;strokeColor=none;fillColor=none;align=center;verticalAlign=middle;whiteSpace=wrap;rounded=0;fontStyle=5;fontColor=#1A1A1A;" vertex="1" parent="UX8QNiUzuCXV589lkSou-43">
          <mxGeometry x="355" y="500" width="40" height="20" as="geometry" />
        </mxCell>
        <mxCell id="UX8QNiUzuCXV589lkSou-58" value="" style="verticalLabelPosition=bottom;shadow=0;dashed=0;align=center;html=1;verticalAlign=top;strokeWidth=1;shape=mxgraph.mockup.graphics.simpleIcon;strokeColor=#999999;fontColor=#1A1A1A;" vertex="1" parent="UX8QNiUzuCXV589lkSou-43">
          <mxGeometry x="130" y="220" width="540" height="240" as="geometry" />
        </mxCell>
        <mxCell id="UX8QNiUzuCXV589lkSou-106" value="" style="verticalLabelPosition=bottom;verticalAlign=top;html=1;shape=mxgraph.basic.rect;fillColor2=none;strokeWidth=1;size=20;indent=5;fontColor=#1A1A1A;" vertex="1" parent="UX8QNiUzuCXV589lkSou-43">
          <mxGeometry x="160" y="420" width="90" height="30" as="geometry" />
        </mxCell>
        <mxCell id="UX8QNiUzuCXV589lkSou-109" value="" style="verticalLabelPosition=bottom;verticalAlign=top;html=1;shape=mxgraph.basic.rect;fillColor2=none;strokeWidth=1;size=20;indent=5;fontColor=#1A1A1A;" vertex="1" parent="UX8QNiUzuCXV589lkSou-43">
          <mxGeometry x="270" y="420" width="90" height="30" as="geometry" />
        </mxCell>
        <mxCell id="UX8QNiUzuCXV589lkSou-110" value="Edit" style="text;html=1;strokeColor=none;fillColor=none;align=center;verticalAlign=middle;whiteSpace=wrap;rounded=0;fontStyle=5;fontColor=#1A1A1A;" vertex="1" parent="UX8QNiUzuCXV589lkSou-43">
          <mxGeometry x="155" y="425" width="100" height="20" as="geometry" />
        </mxCell>
        <mxCell id="UX8QNiUzuCXV589lkSou-111" value="Delete" style="text;html=1;strokeColor=none;fillColor=none;align=center;verticalAlign=middle;whiteSpace=wrap;rounded=0;fontStyle=5;fontColor=#1A1A1A;" vertex="1" parent="UX8QNiUzuCXV589lkSou-43">
          <mxGeometry x="270" y="425" width="100" height="20" as="geometry" />
        </mxCell>
        <mxCell id="UX8QNiUzuCXV589lkSou-64" value="" style="strokeWidth=1;shadow=0;dashed=0;align=center;html=1;shape=mxgraph.mockup.containers.browserWindow;rSize=0;strokeColor=#666666;strokeColor2=#008cff;strokeColor3=#c4c4c4;mainText=,;recursiveResize=0;" vertex="1" parent="1">
          <mxGeometry x="80" y="1730" width="790" height="540" as="geometry" />
        </mxCell>
        <mxCell id="UX8QNiUzuCXV589lkSou-65" value="Recipe Island" style="strokeWidth=1;shadow=0;dashed=0;align=center;html=1;shape=mxgraph.mockup.containers.anchor;fontSize=17;fontColor=#666666;align=left;" vertex="1" parent="UX8QNiUzuCXV589lkSou-64">
          <mxGeometry x="60" y="12" width="110" height="26" as="geometry" />
        </mxCell>
        <mxCell id="UX8QNiUzuCXV589lkSou-66" value="https://milestone-project-03.herokuapp.com/" style="strokeWidth=1;shadow=0;dashed=0;align=center;html=1;shape=mxgraph.mockup.containers.anchor;rSize=0;fontSize=17;fontColor=#666666;align=left;" vertex="1" parent="UX8QNiUzuCXV589lkSou-64">
          <mxGeometry x="130" y="60" width="250" height="26" as="geometry" />
        </mxCell>
        <mxCell id="UX8QNiUzuCXV589lkSou-67" value="Logo" style="html=1;shadow=0;dashed=0;fillColor=#647687;strokeColor=#314354;fontSize=16;align=left;spacing=15;fontColor=#ffffff;" vertex="1" parent="UX8QNiUzuCXV589lkSou-64">
          <mxGeometry y="110" width="780" height="50" as="geometry" />
        </mxCell>
        <mxCell id="UX8QNiUzuCXV589lkSou-68" value="Home" style="fillColor=none;strokeColor=none;fontSize=14;align=center;fontColor=#80FF00;" vertex="1" parent="UX8QNiUzuCXV589lkSou-67">
          <mxGeometry width="70" height="40" relative="1" as="geometry">
            <mxPoint x="390" y="5" as="offset" />
          </mxGeometry>
        </mxCell>
        <mxCell id="UX8QNiUzuCXV589lkSou-69" value="Recipies" style="fillColor=none;strokeColor=none;fontSize=14;fontColor=#9A9DA0;align=center;" vertex="1" parent="UX8QNiUzuCXV589lkSou-67">
          <mxGeometry width="70" height="40" relative="1" as="geometry">
            <mxPoint x="450" y="5" as="offset" />
          </mxGeometry>
        </mxCell>
        <mxCell id="UX8QNiUzuCXV589lkSou-70" value="Profile" style="fillColor=none;strokeColor=none;fontSize=14;fontColor=#9A9DA0;align=center;spacingRight=0;" vertex="1" parent="UX8QNiUzuCXV589lkSou-67">
          <mxGeometry width="80" height="40" relative="1" as="geometry">
            <mxPoint x="510" y="5" as="offset" />
          </mxGeometry>
        </mxCell>
        <mxCell id="UX8QNiUzuCXV589lkSou-71" value="Login" style="fillColor=none;strokeColor=none;fontSize=14;align=center;fontColor=#80FF00;" vertex="1" parent="UX8QNiUzuCXV589lkSou-67">
          <mxGeometry width="80" height="40" relative="1" as="geometry">
            <mxPoint x="570" y="5" as="offset" />
          </mxGeometry>
        </mxCell>
        <mxCell id="UX8QNiUzuCXV589lkSou-72" value="Log out" style="fillColor=none;strokeColor=none;fontSize=14;align=center;fontColor=#FF0000;" vertex="1" parent="UX8QNiUzuCXV589lkSou-67">
          <mxGeometry x="700" y="5" width="80" height="40" as="geometry" />
        </mxCell>
        <mxCell id="UX8QNiUzuCXV589lkSou-73" value="Register" style="fillColor=none;strokeColor=none;fontSize=14;align=center;fontColor=#FF0000;" vertex="1" parent="UX8QNiUzuCXV589lkSou-67">
          <mxGeometry x="630" y="5" width="80" height="40" as="geometry" />
        </mxCell>
        <mxCell id="UX8QNiUzuCXV589lkSou-74" value="Username&#39;s Profile" style="text;html=1;strokeColor=none;fillColor=none;align=center;verticalAlign=middle;whiteSpace=wrap;rounded=0;fontStyle=5;fontColor=#1A1A1A;" vertex="1" parent="UX8QNiUzuCXV589lkSou-64">
          <mxGeometry x="330" y="180" width="140" height="20" as="geometry" />
        </mxCell>
        <mxCell id="UX8QNiUzuCXV589lkSou-75" value="" style="rounded=1;whiteSpace=wrap;html=1;fontColor=#FF3399;" vertex="1" parent="UX8QNiUzuCXV589lkSou-64">
          <mxGeometry x="5" y="503" width="780" height="30" as="geometry" />
        </mxCell>
        <mxCell id="UX8QNiUzuCXV589lkSou-76" value="Copyright text" style="text;html=1;strokeColor=none;fillColor=none;align=center;verticalAlign=middle;whiteSpace=wrap;rounded=0;fontColor=#1A1A1A;" vertex="1" parent="UX8QNiUzuCXV589lkSou-64">
          <mxGeometry x="35" y="508" width="150" height="20" as="geometry" />
        </mxCell>
        <mxCell id="UX8QNiUzuCXV589lkSou-77" value="Social Media links" style="text;html=1;strokeColor=none;fillColor=none;align=center;verticalAlign=middle;whiteSpace=wrap;rounded=0;fontColor=#1A1A1A;" vertex="1" parent="UX8QNiUzuCXV589lkSou-64">
          <mxGeometry x="620" y="508" width="150" height="20" as="geometry" />
        </mxCell>
        <mxCell id="UX8QNiUzuCXV589lkSou-78" value="Footer" style="text;html=1;strokeColor=none;fillColor=none;align=center;verticalAlign=middle;whiteSpace=wrap;rounded=0;fontStyle=5;fontColor=#1A1A1A;" vertex="1" parent="UX8QNiUzuCXV589lkSou-64">
          <mxGeometry x="355" y="500" width="40" height="20" as="geometry" />
        </mxCell>
        <mxCell id="UX8QNiUzuCXV589lkSou-79" value="" style="verticalLabelPosition=bottom;shadow=0;dashed=0;align=center;html=1;verticalAlign=top;strokeWidth=1;shape=mxgraph.mockup.graphics.simpleIcon;strokeColor=#999999;fontColor=#1A1A1A;" vertex="1" parent="UX8QNiUzuCXV589lkSou-64">
          <mxGeometry x="130" y="220" width="540" height="200" as="geometry" />
        </mxCell>
        <mxCell id="UX8QNiUzuCXV589lkSou-85" value="" style="strokeWidth=1;shadow=0;dashed=0;align=center;html=1;shape=mxgraph.mockup.containers.browserWindow;rSize=0;strokeColor=#666666;strokeColor2=#008cff;strokeColor3=#c4c4c4;mainText=,;recursiveResize=0;" vertex="1" parent="1">
          <mxGeometry x="80" y="2300" width="800" height="540" as="geometry" />
        </mxCell>
        <mxCell id="UX8QNiUzuCXV589lkSou-86" value="Recipe Island" style="strokeWidth=1;shadow=0;dashed=0;align=center;html=1;shape=mxgraph.mockup.containers.anchor;fontSize=17;fontColor=#666666;align=left;" vertex="1" parent="UX8QNiUzuCXV589lkSou-85">
          <mxGeometry x="60" y="12" width="110" height="26" as="geometry" />
        </mxCell>
        <mxCell id="UX8QNiUzuCXV589lkSou-87" value="https://milestone-project-03.herokuapp.com/" style="strokeWidth=1;shadow=0;dashed=0;align=center;html=1;shape=mxgraph.mockup.containers.anchor;rSize=0;fontSize=17;fontColor=#666666;align=left;" vertex="1" parent="UX8QNiUzuCXV589lkSou-85">
          <mxGeometry x="130" y="60" width="250" height="26" as="geometry" />
        </mxCell>
        <mxCell id="UX8QNiUzuCXV589lkSou-88" value="Logo" style="html=1;shadow=0;dashed=0;fillColor=#647687;strokeColor=#314354;fontSize=16;align=left;spacing=15;fontColor=#ffffff;" vertex="1" parent="UX8QNiUzuCXV589lkSou-85">
          <mxGeometry y="110" width="780" height="50" as="geometry" />
        </mxCell>
        <mxCell id="UX8QNiUzuCXV589lkSou-89" value="Home" style="fillColor=none;strokeColor=none;fontSize=14;align=center;fontColor=#80FF00;" vertex="1" parent="UX8QNiUzuCXV589lkSou-88">
          <mxGeometry width="70" height="40" relative="1" as="geometry">
            <mxPoint x="390" y="5" as="offset" />
          </mxGeometry>
        </mxCell>
        <mxCell id="UX8QNiUzuCXV589lkSou-90" value="Recipies" style="fillColor=none;strokeColor=none;fontSize=14;fontColor=#9A9DA0;align=center;" vertex="1" parent="UX8QNiUzuCXV589lkSou-88">
          <mxGeometry width="70" height="40" relative="1" as="geometry">
            <mxPoint x="450" y="5" as="offset" />
          </mxGeometry>
        </mxCell>
        <mxCell id="UX8QNiUzuCXV589lkSou-91" value="Profile" style="fillColor=none;strokeColor=none;fontSize=14;fontColor=#9A9DA0;align=center;spacingRight=0;" vertex="1" parent="UX8QNiUzuCXV589lkSou-88">
          <mxGeometry width="80" height="40" relative="1" as="geometry">
            <mxPoint x="510" y="5" as="offset" />
          </mxGeometry>
        </mxCell>
        <mxCell id="UX8QNiUzuCXV589lkSou-92" value="Login" style="fillColor=none;strokeColor=none;fontSize=14;align=center;fontColor=#80FF00;" vertex="1" parent="UX8QNiUzuCXV589lkSou-88">
          <mxGeometry width="80" height="40" relative="1" as="geometry">
            <mxPoint x="570" y="5" as="offset" />
          </mxGeometry>
        </mxCell>
        <mxCell id="UX8QNiUzuCXV589lkSou-93" value="Log out" style="fillColor=none;strokeColor=none;fontSize=14;align=center;fontColor=#FF0000;" vertex="1" parent="UX8QNiUzuCXV589lkSou-88">
          <mxGeometry x="700" y="5" width="80" height="40" as="geometry" />
        </mxCell>
        <mxCell id="UX8QNiUzuCXV589lkSou-94" value="Register" style="fillColor=none;strokeColor=none;fontSize=14;align=center;fontColor=#FF0000;" vertex="1" parent="UX8QNiUzuCXV589lkSou-88">
          <mxGeometry x="630" y="5" width="80" height="40" as="geometry" />
        </mxCell>
        <mxCell id="UX8QNiUzuCXV589lkSou-95" value="Log in form" style="text;html=1;strokeColor=none;fillColor=none;align=center;verticalAlign=middle;whiteSpace=wrap;rounded=0;fontStyle=5;fontColor=#1A1A1A;" vertex="1" parent="UX8QNiUzuCXV589lkSou-85">
          <mxGeometry x="360" y="180" width="70" height="20" as="geometry" />
        </mxCell>
        <mxCell id="UX8QNiUzuCXV589lkSou-96" value="" style="rounded=1;whiteSpace=wrap;html=1;fontColor=#FF3399;" vertex="1" parent="UX8QNiUzuCXV589lkSou-85">
          <mxGeometry x="5" y="503" width="780" height="30" as="geometry" />
        </mxCell>
        <mxCell id="UX8QNiUzuCXV589lkSou-97" value="Copyright text" style="text;html=1;strokeColor=none;fillColor=none;align=center;verticalAlign=middle;whiteSpace=wrap;rounded=0;fontColor=#1A1A1A;" vertex="1" parent="UX8QNiUzuCXV589lkSou-85">
          <mxGeometry x="35" y="508" width="150" height="20" as="geometry" />
        </mxCell>
        <mxCell id="UX8QNiUzuCXV589lkSou-98" value="Social Media links" style="text;html=1;strokeColor=none;fillColor=none;align=center;verticalAlign=middle;whiteSpace=wrap;rounded=0;fontColor=#1A1A1A;" vertex="1" parent="UX8QNiUzuCXV589lkSou-85">
          <mxGeometry x="620" y="508" width="150" height="20" as="geometry" />
        </mxCell>
        <mxCell id="UX8QNiUzuCXV589lkSou-99" value="Footer" style="text;html=1;strokeColor=none;fillColor=none;align=center;verticalAlign=middle;whiteSpace=wrap;rounded=0;fontStyle=5;fontColor=#1A1A1A;" vertex="1" parent="UX8QNiUzuCXV589lkSou-85">
          <mxGeometry x="355" y="500" width="40" height="20" as="geometry" />
        </mxCell>
        <mxCell id="UX8QNiUzuCXV589lkSou-100" value="" style="verticalLabelPosition=bottom;shadow=0;dashed=0;align=center;html=1;verticalAlign=top;strokeWidth=1;shape=mxgraph.mockup.graphics.simpleIcon;strokeColor=#999999;fontColor=#1A1A1A;" vertex="1" parent="UX8QNiUzuCXV589lkSou-85">
          <mxGeometry x="130" y="220" width="540" height="200" as="geometry" />
        </mxCell>
        <mxCell id="UX8QNiUzuCXV589lkSou-112" value="" style="strokeWidth=1;shadow=0;dashed=0;align=center;html=1;shape=mxgraph.mockup.containers.browserWindow;rSize=0;strokeColor=#666666;strokeColor2=#008cff;strokeColor3=#c4c4c4;mainText=,;recursiveResize=0;" vertex="1" parent="1">
          <mxGeometry x="80" y="2890" width="790" height="540" as="geometry" />
        </mxCell>
        <mxCell id="UX8QNiUzuCXV589lkSou-113" value="Recipe Island" style="strokeWidth=1;shadow=0;dashed=0;align=center;html=1;shape=mxgraph.mockup.containers.anchor;fontSize=17;fontColor=#666666;align=left;" vertex="1" parent="UX8QNiUzuCXV589lkSou-112">
          <mxGeometry x="60" y="12" width="110" height="26" as="geometry" />
        </mxCell>
        <mxCell id="UX8QNiUzuCXV589lkSou-114" value="https://milestone-project-03.herokuapp.com/" style="strokeWidth=1;shadow=0;dashed=0;align=center;html=1;shape=mxgraph.mockup.containers.anchor;rSize=0;fontSize=17;fontColor=#666666;align=left;" vertex="1" parent="UX8QNiUzuCXV589lkSou-112">
          <mxGeometry x="130" y="60" width="250" height="26" as="geometry" />
        </mxCell>
        <mxCell id="UX8QNiUzuCXV589lkSou-115" value="Logo" style="html=1;shadow=0;dashed=0;fillColor=#647687;strokeColor=#314354;fontSize=16;align=left;spacing=15;fontColor=#ffffff;" vertex="1" parent="UX8QNiUzuCXV589lkSou-112">
          <mxGeometry y="110" width="780" height="50" as="geometry" />
        </mxCell>
        <mxCell id="UX8QNiUzuCXV589lkSou-116" value="Home" style="fillColor=none;strokeColor=none;fontSize=14;align=center;fontColor=#80FF00;" vertex="1" parent="UX8QNiUzuCXV589lkSou-115">
          <mxGeometry width="70" height="40" relative="1" as="geometry">
            <mxPoint x="390" y="5" as="offset" />
          </mxGeometry>
        </mxCell>
        <mxCell id="UX8QNiUzuCXV589lkSou-117" value="Recipies" style="fillColor=none;strokeColor=none;fontSize=14;fontColor=#9A9DA0;align=center;" vertex="1" parent="UX8QNiUzuCXV589lkSou-115">
          <mxGeometry width="70" height="40" relative="1" as="geometry">
            <mxPoint x="450" y="5" as="offset" />
          </mxGeometry>
        </mxCell>
        <mxCell id="UX8QNiUzuCXV589lkSou-118" value="Profile" style="fillColor=none;strokeColor=none;fontSize=14;fontColor=#9A9DA0;align=center;spacingRight=0;" vertex="1" parent="UX8QNiUzuCXV589lkSou-115">
          <mxGeometry width="80" height="40" relative="1" as="geometry">
            <mxPoint x="510" y="5" as="offset" />
          </mxGeometry>
        </mxCell>
        <mxCell id="UX8QNiUzuCXV589lkSou-119" value="Login" style="fillColor=none;strokeColor=none;fontSize=14;align=center;fontColor=#80FF00;" vertex="1" parent="UX8QNiUzuCXV589lkSou-115">
          <mxGeometry width="80" height="40" relative="1" as="geometry">
            <mxPoint x="570" y="5" as="offset" />
          </mxGeometry>
        </mxCell>
        <mxCell id="UX8QNiUzuCXV589lkSou-120" value="Log out" style="fillColor=none;strokeColor=none;fontSize=14;align=center;fontColor=#FF0000;" vertex="1" parent="UX8QNiUzuCXV589lkSou-115">
          <mxGeometry x="700" y="5" width="80" height="40" as="geometry" />
        </mxCell>
        <mxCell id="UX8QNiUzuCXV589lkSou-121" value="Register" style="fillColor=none;strokeColor=none;fontSize=14;align=center;fontColor=#FF0000;" vertex="1" parent="UX8QNiUzuCXV589lkSou-115">
          <mxGeometry x="630" y="5" width="80" height="40" as="geometry" />
        </mxCell>
        <mxCell id="UX8QNiUzuCXV589lkSou-122" value="Register&amp;nbsp; form" style="text;html=1;strokeColor=none;fillColor=none;align=center;verticalAlign=middle;whiteSpace=wrap;rounded=0;fontStyle=5;fontColor=#1A1A1A;" vertex="1" parent="UX8QNiUzuCXV589lkSou-112">
          <mxGeometry x="360" y="180" width="90" height="20" as="geometry" />
        </mxCell>
        <mxCell id="UX8QNiUzuCXV589lkSou-123" value="" style="rounded=1;whiteSpace=wrap;html=1;fontColor=#FF3399;" vertex="1" parent="UX8QNiUzuCXV589lkSou-112">
          <mxGeometry x="5" y="503" width="780" height="30" as="geometry" />
        </mxCell>
        <mxCell id="UX8QNiUzuCXV589lkSou-124" value="Copyright text" style="text;html=1;strokeColor=none;fillColor=none;align=center;verticalAlign=middle;whiteSpace=wrap;rounded=0;fontColor=#1A1A1A;" vertex="1" parent="UX8QNiUzuCXV589lkSou-112">
          <mxGeometry x="35" y="508" width="150" height="20" as="geometry" />
        </mxCell>
        <mxCell id="UX8QNiUzuCXV589lkSou-125" value="Social Media links" style="text;html=1;strokeColor=none;fillColor=none;align=center;verticalAlign=middle;whiteSpace=wrap;rounded=0;fontColor=#1A1A1A;" vertex="1" parent="UX8QNiUzuCXV589lkSou-112">
          <mxGeometry x="620" y="508" width="150" height="20" as="geometry" />
        </mxCell>
        <mxCell id="UX8QNiUzuCXV589lkSou-126" value="Footer" style="text;html=1;strokeColor=none;fillColor=none;align=center;verticalAlign=middle;whiteSpace=wrap;rounded=0;fontStyle=5;fontColor=#1A1A1A;" vertex="1" parent="UX8QNiUzuCXV589lkSou-112">
          <mxGeometry x="355" y="500" width="40" height="20" as="geometry" />
        </mxCell>
        <mxCell id="UX8QNiUzuCXV589lkSou-127" value="" style="verticalLabelPosition=bottom;shadow=0;dashed=0;align=center;html=1;verticalAlign=top;strokeWidth=1;shape=mxgraph.mockup.graphics.simpleIcon;strokeColor=#999999;fontColor=#1A1A1A;" vertex="1" parent="UX8QNiUzuCXV589lkSou-112">
          <mxGeometry x="130" y="220" width="540" height="200" as="geometry" />
        </mxCell>
      </root>
    </mxGraphModel>
  </diagram>
  <diagram id="2r570p7k_jzz1PyAyrj-" name="Mobile view">
    <mxGraphModel dx="946" dy="460" grid="1" gridSize="10" guides="1" tooltips="1" connect="1" arrows="1" fold="1" page="1" pageScale="1" pageWidth="1100" pageHeight="1700" math="0" shadow="0">
      <root>
        <mxCell id="FaWAbPz1wZYJKP-m1ZQF-0" />
        <mxCell id="FaWAbPz1wZYJKP-m1ZQF-1" parent="FaWAbPz1wZYJKP-m1ZQF-0" />
        <mxCell id="FaWAbPz1wZYJKP-m1ZQF-2" value="" style="rounded=0;whiteSpace=wrap;html=1;fontColor=#FF3399;" vertex="1" parent="FaWAbPz1wZYJKP-m1ZQF-1">
          <mxGeometry x="284" y="70" width="160" height="140" as="geometry" />
        </mxCell>
        <mxCell id="FaWAbPz1wZYJKP-m1ZQF-3" value="" style="html=1;verticalLabelPosition=bottom;labelBackgroundColor=#ffffff;verticalAlign=top;shadow=0;dashed=0;strokeWidth=1;shape=mxgraph.ios7.misc.iphone;strokeColor=#c0c0c0;fontSize=24;" vertex="1" parent="FaWAbPz1wZYJKP-m1ZQF-1">
          <mxGeometry x="80" y="10" width="200" height="450" as="geometry" />
        </mxCell>
        <mxCell id="FaWAbPz1wZYJKP-m1ZQF-4" value="Home" style="text;html=1;strokeColor=none;fillColor=none;align=center;verticalAlign=middle;whiteSpace=wrap;rounded=0;" vertex="1" parent="FaWAbPz1wZYJKP-m1ZQF-1">
          <mxGeometry x="336" y="70" width="40" height="20" as="geometry" />
        </mxCell>
        <mxCell id="FaWAbPz1wZYJKP-m1ZQF-5" value="Profile" style="text;html=1;strokeColor=none;fillColor=none;align=center;verticalAlign=middle;whiteSpace=wrap;rounded=0;" vertex="1" parent="FaWAbPz1wZYJKP-m1ZQF-1">
          <mxGeometry x="334" y="110" width="40" height="20" as="geometry" />
        </mxCell>
        <mxCell id="FaWAbPz1wZYJKP-m1ZQF-6" value="Recipes" style="text;html=1;strokeColor=none;fillColor=none;align=center;verticalAlign=middle;whiteSpace=wrap;rounded=0;" vertex="1" parent="FaWAbPz1wZYJKP-m1ZQF-1">
          <mxGeometry x="335" y="84.25" width="40" height="25" as="geometry" />
        </mxCell>
        <mxCell id="FaWAbPz1wZYJKP-m1ZQF-7" value="Register" style="text;html=1;strokeColor=none;fillColor=none;align=center;verticalAlign=middle;whiteSpace=wrap;rounded=0;" vertex="1" parent="FaWAbPz1wZYJKP-m1ZQF-1">
          <mxGeometry x="336" y="160" width="40" height="20" as="geometry" />
        </mxCell>
        <mxCell id="FaWAbPz1wZYJKP-m1ZQF-8" value="" style="html=1;verticalLabelPosition=bottom;labelBackgroundColor=#ffffff;verticalAlign=top;shadow=0;dashed=0;strokeWidth=2;shape=mxgraph.ios7.misc.options;fillColor=#222222;fontColor=#FF3399;" vertex="1" parent="FaWAbPz1wZYJKP-m1ZQF-1">
          <mxGeometry x="247.5" y="78.25" width="20" height="20" as="geometry" />
        </mxCell>
        <mxCell id="FaWAbPz1wZYJKP-m1ZQF-9" value="Logo" style="text;html=1;strokeColor=none;fillColor=none;align=center;verticalAlign=middle;whiteSpace=wrap;rounded=0;" vertex="1" parent="FaWAbPz1wZYJKP-m1ZQF-1">
          <mxGeometry x="155" y="78.25" width="40" height="20" as="geometry" />
        </mxCell>
        <mxCell id="FaWAbPz1wZYJKP-m1ZQF-10" value="Log In" style="text;html=1;strokeColor=none;fillColor=none;align=center;verticalAlign=middle;whiteSpace=wrap;rounded=0;" vertex="1" parent="FaWAbPz1wZYJKP-m1ZQF-1">
          <mxGeometry x="334" y="133" width="40" height="24" as="geometry" />
        </mxCell>
        <mxCell id="FaWAbPz1wZYJKP-m1ZQF-11" value="Log Out" style="text;html=1;strokeColor=none;fillColor=none;align=center;verticalAlign=middle;whiteSpace=wrap;rounded=0;" vertex="1" parent="FaWAbPz1wZYJKP-m1ZQF-1">
          <mxGeometry x="329" y="180" width="54" height="20" as="geometry" />
        </mxCell>
        <mxCell id="YcMbm0rXrPCZ6skVU1cg-0" value="&lt;h1&gt;Heading&lt;/h1&gt;&lt;p&gt;Lorem ipsum dolor sit amet, consectetur adipisicing elit, sed do eiusmod tempor incididunt ut labore et dolore magna aliqua.&lt;/p&gt;" style="text;html=1;strokeColor=none;fillColor=none;spacing=5;spacingTop=-20;whiteSpace=wrap;overflow=hidden;rounded=0;" vertex="1" parent="FaWAbPz1wZYJKP-m1ZQF-1">
          <mxGeometry x="100" y="200" width="150" height="120" as="geometry" />
        </mxCell>
        <mxCell id="YcMbm0rXrPCZ6skVU1cg-1" value="HOME" style="text;html=1;strokeColor=none;fillColor=none;align=center;verticalAlign=middle;whiteSpace=wrap;rounded=0;fontStyle=5;fontColor=#1A1A1A;" vertex="1" parent="FaWAbPz1wZYJKP-m1ZQF-1">
          <mxGeometry x="160" y="110" width="40" height="20" as="geometry" />
        </mxCell>
        <mxCell id="YcMbm0rXrPCZ6skVU1cg-2" value="HERO VIDEO in background" style="text;html=1;strokeColor=none;fillColor=none;align=center;verticalAlign=middle;whiteSpace=wrap;rounded=0;fontColor=#1A1A1A;" vertex="1" parent="FaWAbPz1wZYJKP-m1ZQF-1">
          <mxGeometry x="90" y="150" width="150" height="20" as="geometry" />
        </mxCell>
        <mxCell id="P1H9vyuBKPeh1R31oMHv-0" value="" style="rounded=1;whiteSpace=wrap;html=1;fontColor=#FF3399;" vertex="1" parent="FaWAbPz1wZYJKP-m1ZQF-1">
          <mxGeometry x="90" y="363" width="180" height="30" as="geometry" />
        </mxCell>
        <mxCell id="P1H9vyuBKPeh1R31oMHv-1" value="Copyright text" style="text;html=1;strokeColor=none;fillColor=none;align=center;verticalAlign=middle;whiteSpace=wrap;rounded=0;fontColor=#1A1A1A;" vertex="1" parent="FaWAbPz1wZYJKP-m1ZQF-1">
          <mxGeometry x="120" y="368" width="10" height="20" as="geometry" />
        </mxCell>
        <mxCell id="P1H9vyuBKPeh1R31oMHv-2" value="Social Media links" style="text;html=1;strokeColor=none;fillColor=none;align=center;verticalAlign=middle;whiteSpace=wrap;rounded=0;fontColor=#1A1A1A;" vertex="1" parent="FaWAbPz1wZYJKP-m1ZQF-1">
          <mxGeometry x="210" y="368" width="67" height="20" as="geometry" />
        </mxCell>
        <mxCell id="P1H9vyuBKPeh1R31oMHv-3" value="Footer" style="text;html=1;strokeColor=none;fillColor=none;align=center;verticalAlign=middle;whiteSpace=wrap;rounded=0;fontStyle=5;fontColor=#1A1A1A;" vertex="1" parent="FaWAbPz1wZYJKP-m1ZQF-1">
          <mxGeometry x="160" y="363" width="40" height="20" as="geometry" />
        </mxCell>
        <mxCell id="P1H9vyuBKPeh1R31oMHv-4" value="" style="html=1;verticalLabelPosition=bottom;labelBackgroundColor=#ffffff;verticalAlign=top;shadow=0;dashed=0;strokeWidth=1;shape=mxgraph.ios7.misc.iphone;strokeColor=#c0c0c0;fontSize=24;" vertex="1" parent="FaWAbPz1wZYJKP-m1ZQF-1">
          <mxGeometry x="460" y="10" width="200" height="450" as="geometry" />
        </mxCell>
        <mxCell id="P1H9vyuBKPeh1R31oMHv-5" value="" style="html=1;verticalLabelPosition=bottom;labelBackgroundColor=#ffffff;verticalAlign=top;shadow=0;dashed=0;strokeWidth=2;shape=mxgraph.ios7.misc.options;fillColor=#222222;fontColor=#FF3399;" vertex="1" parent="FaWAbPz1wZYJKP-m1ZQF-1">
          <mxGeometry x="627.5" y="78.25" width="20" height="20" as="geometry" />
        </mxCell>
        <mxCell id="P1H9vyuBKPeh1R31oMHv-6" value="Logo" style="text;html=1;strokeColor=none;fillColor=none;align=center;verticalAlign=middle;whiteSpace=wrap;rounded=0;" vertex="1" parent="FaWAbPz1wZYJKP-m1ZQF-1">
          <mxGeometry x="535" y="78.25" width="40" height="20" as="geometry" />
        </mxCell>
        <mxCell id="P1H9vyuBKPeh1R31oMHv-7" value="" style="rounded=1;whiteSpace=wrap;html=1;fontColor=#FF3399;" vertex="1" parent="FaWAbPz1wZYJKP-m1ZQF-1">
          <mxGeometry x="470" y="358" width="176.5" height="30" as="geometry" />
        </mxCell>
        <mxCell id="P1H9vyuBKPeh1R31oMHv-8" value="Copyright text" style="text;html=1;strokeColor=none;fillColor=none;align=center;verticalAlign=middle;whiteSpace=wrap;rounded=0;fontColor=#1A1A1A;" vertex="1" parent="FaWAbPz1wZYJKP-m1ZQF-1">
          <mxGeometry x="496.5" y="363" width="10" height="20" as="geometry" />
        </mxCell>
        <mxCell id="P1H9vyuBKPeh1R31oMHv-9" value="Social Media links" style="text;html=1;strokeColor=none;fillColor=none;align=center;verticalAlign=middle;whiteSpace=wrap;rounded=0;fontColor=#1A1A1A;" vertex="1" parent="FaWAbPz1wZYJKP-m1ZQF-1">
          <mxGeometry x="586.5" y="363" width="67" height="20" as="geometry" />
        </mxCell>
        <mxCell id="P1H9vyuBKPeh1R31oMHv-10" value="Footer" style="text;html=1;strokeColor=none;fillColor=none;align=center;verticalAlign=middle;whiteSpace=wrap;rounded=0;fontStyle=5;fontColor=#1A1A1A;" vertex="1" parent="FaWAbPz1wZYJKP-m1ZQF-1">
          <mxGeometry x="536.5" y="358" width="40" height="20" as="geometry" />
        </mxCell>
        <mxCell id="75SgGdCh9Onr_xMa5-d5-0" value="Recipes" style="text;html=1;strokeColor=none;fillColor=none;align=center;verticalAlign=middle;whiteSpace=wrap;rounded=0;fontStyle=5;fontColor=#1A1A1A;" vertex="1" parent="FaWAbPz1wZYJKP-m1ZQF-1">
          <mxGeometry x="540" y="120" width="40" height="20" as="geometry" />
        </mxCell>
        <mxCell id="75SgGdCh9Onr_xMa5-d5-1" value="" style="verticalLabelPosition=bottom;shadow=0;dashed=0;align=center;html=1;verticalAlign=top;strokeWidth=1;shape=mxgraph.mockup.graphics.simpleIcon;strokeColor=#999999;fontColor=#1A1A1A;" vertex="1" parent="FaWAbPz1wZYJKP-m1ZQF-1">
          <mxGeometry x="488" y="150" width="144" height="30" as="geometry" />
        </mxCell>
        <mxCell id="75SgGdCh9Onr_xMa5-d5-2" value="Search bar" style="text;html=1;strokeColor=none;fillColor=none;align=center;verticalAlign=middle;whiteSpace=wrap;rounded=0;fontStyle=5;fontColor=#1A1A1A;" vertex="1" parent="FaWAbPz1wZYJKP-m1ZQF-1">
          <mxGeometry x="506.5" y="180" width="100" height="20" as="geometry" />
        </mxCell>
        <mxCell id="75SgGdCh9Onr_xMa5-d5-3" value="" style="verticalLabelPosition=bottom;shadow=0;dashed=0;align=center;html=1;verticalAlign=top;strokeWidth=1;shape=mxgraph.mockup.graphics.simpleIcon;strokeColor=#999999;fontColor=#1A1A1A;" vertex="1" parent="FaWAbPz1wZYJKP-m1ZQF-1">
          <mxGeometry x="488" y="210" width="142" height="90" as="geometry" />
        </mxCell>
        <mxCell id="75SgGdCh9Onr_xMa5-d5-4" value="Recipe cards" style="text;html=1;strokeColor=none;fillColor=none;align=center;verticalAlign=middle;whiteSpace=wrap;rounded=0;fontStyle=5;fontColor=#1A1A1A;" vertex="1" parent="FaWAbPz1wZYJKP-m1ZQF-1">
          <mxGeometry x="506.5" y="310" width="100" height="20" as="geometry" />
        </mxCell>
        <mxCell id="75SgGdCh9Onr_xMa5-d5-5" value="" style="html=1;verticalLabelPosition=bottom;labelBackgroundColor=#ffffff;verticalAlign=top;shadow=0;dashed=0;strokeWidth=1;shape=mxgraph.ios7.misc.iphone;strokeColor=#c0c0c0;fontSize=24;" vertex="1" parent="FaWAbPz1wZYJKP-m1ZQF-1">
          <mxGeometry x="680" y="10" width="200" height="450" as="geometry" />
        </mxCell>
        <mxCell id="75SgGdCh9Onr_xMa5-d5-6" value="" style="html=1;verticalLabelPosition=bottom;labelBackgroundColor=#ffffff;verticalAlign=top;shadow=0;dashed=0;strokeWidth=2;shape=mxgraph.ios7.misc.options;fillColor=#222222;fontColor=#FF3399;" vertex="1" parent="FaWAbPz1wZYJKP-m1ZQF-1">
          <mxGeometry x="847.5" y="78.25" width="20" height="20" as="geometry" />
        </mxCell>
        <mxCell id="75SgGdCh9Onr_xMa5-d5-7" value="Logo" style="text;html=1;strokeColor=none;fillColor=none;align=center;verticalAlign=middle;whiteSpace=wrap;rounded=0;" vertex="1" parent="FaWAbPz1wZYJKP-m1ZQF-1">
          <mxGeometry x="755" y="78.25" width="40" height="20" as="geometry" />
        </mxCell>
        <mxCell id="75SgGdCh9Onr_xMa5-d5-8" value="" style="rounded=1;whiteSpace=wrap;html=1;fontColor=#FF3399;" vertex="1" parent="FaWAbPz1wZYJKP-m1ZQF-1">
          <mxGeometry x="690" y="358" width="176.5" height="30" as="geometry" />
        </mxCell>
        <mxCell id="75SgGdCh9Onr_xMa5-d5-9" value="Copyright text" style="text;html=1;strokeColor=none;fillColor=none;align=center;verticalAlign=middle;whiteSpace=wrap;rounded=0;fontColor=#1A1A1A;" vertex="1" parent="FaWAbPz1wZYJKP-m1ZQF-1">
          <mxGeometry x="716.5" y="363" width="10" height="20" as="geometry" />
        </mxCell>
        <mxCell id="75SgGdCh9Onr_xMa5-d5-10" value="Social Media links" style="text;html=1;strokeColor=none;fillColor=none;align=center;verticalAlign=middle;whiteSpace=wrap;rounded=0;fontColor=#1A1A1A;" vertex="1" parent="FaWAbPz1wZYJKP-m1ZQF-1">
          <mxGeometry x="806.5" y="363" width="67" height="20" as="geometry" />
        </mxCell>
        <mxCell id="75SgGdCh9Onr_xMa5-d5-11" value="Footer" style="text;html=1;strokeColor=none;fillColor=none;align=center;verticalAlign=middle;whiteSpace=wrap;rounded=0;fontStyle=5;fontColor=#1A1A1A;" vertex="1" parent="FaWAbPz1wZYJKP-m1ZQF-1">
          <mxGeometry x="756.5" y="358" width="40" height="20" as="geometry" />
        </mxCell>
        <mxCell id="75SgGdCh9Onr_xMa5-d5-12" value="Recipe details" style="text;html=1;strokeColor=none;fillColor=none;align=center;verticalAlign=middle;whiteSpace=wrap;rounded=0;fontStyle=5;fontColor=#1A1A1A;" vertex="1" parent="FaWAbPz1wZYJKP-m1ZQF-1">
          <mxGeometry x="720" y="120" width="120" height="20" as="geometry" />
        </mxCell>
        <mxCell id="75SgGdCh9Onr_xMa5-d5-13" value="" style="verticalLabelPosition=bottom;shadow=0;dashed=0;align=center;html=1;verticalAlign=top;strokeWidth=1;shape=mxgraph.mockup.graphics.simpleIcon;strokeColor=#999999;fontColor=#1A1A1A;" vertex="1" parent="FaWAbPz1wZYJKP-m1ZQF-1">
          <mxGeometry x="708" y="150" width="144" height="170" as="geometry" />
        </mxCell>
        <mxCell id="osgc6E9tGcl_5hUpDH7z-0" value="" style="verticalLabelPosition=bottom;verticalAlign=top;html=1;shape=mxgraph.basic.rect;fillColor2=none;strokeWidth=1;size=10;indent=5;fontColor=#1A1A1A;" vertex="1" parent="FaWAbPz1wZYJKP-m1ZQF-1">
          <mxGeometry x="708" y="300" width="61.5" height="20" as="geometry" />
        </mxCell>
        <mxCell id="osgc6E9tGcl_5hUpDH7z-1" value="" style="verticalLabelPosition=bottom;verticalAlign=top;html=1;shape=mxgraph.basic.rect;fillColor2=none;strokeWidth=1;size=20;indent=5;fontColor=#1A1A1A;" vertex="1" parent="FaWAbPz1wZYJKP-m1ZQF-1">
          <mxGeometry x="768.5" y="300" width="71.5" height="20" as="geometry" />
        </mxCell>
        <mxCell id="osgc6E9tGcl_5hUpDH7z-2" value="Edit" style="text;html=1;strokeColor=none;fillColor=none;align=center;verticalAlign=middle;whiteSpace=wrap;rounded=0;fontStyle=5;fontColor=#1A1A1A;" vertex="1" parent="FaWAbPz1wZYJKP-m1ZQF-1">
          <mxGeometry x="708" y="302.5" width="66.5" height="15" as="geometry" />
        </mxCell>
        <mxCell id="osgc6E9tGcl_5hUpDH7z-3" value="Delete" style="text;html=1;strokeColor=none;fillColor=none;align=center;verticalAlign=middle;whiteSpace=wrap;rounded=0;fontStyle=5;fontColor=#1A1A1A;" vertex="1" parent="FaWAbPz1wZYJKP-m1ZQF-1">
          <mxGeometry x="770" y="302.5" width="71.5" height="15" as="geometry" />
        </mxCell>
        <mxCell id="nYYp3rdrPunbKLm3PgRs-0" value="" style="html=1;verticalLabelPosition=bottom;labelBackgroundColor=#ffffff;verticalAlign=top;shadow=0;dashed=0;strokeWidth=1;shape=mxgraph.ios7.misc.iphone;strokeColor=#c0c0c0;fontSize=24;" vertex="1" parent="FaWAbPz1wZYJKP-m1ZQF-1">
          <mxGeometry x="900" y="10" width="200" height="450" as="geometry" />
        </mxCell>
        <mxCell id="nYYp3rdrPunbKLm3PgRs-1" value="" style="html=1;verticalLabelPosition=bottom;labelBackgroundColor=#ffffff;verticalAlign=top;shadow=0;dashed=0;strokeWidth=2;shape=mxgraph.ios7.misc.options;fillColor=#222222;fontColor=#FF3399;" vertex="1" parent="FaWAbPz1wZYJKP-m1ZQF-1">
          <mxGeometry x="1067.5" y="78.25" width="20" height="20" as="geometry" />
        </mxCell>
        <mxCell id="nYYp3rdrPunbKLm3PgRs-2" value="Logo" style="text;html=1;strokeColor=none;fillColor=none;align=center;verticalAlign=middle;whiteSpace=wrap;rounded=0;" vertex="1" parent="FaWAbPz1wZYJKP-m1ZQF-1">
          <mxGeometry x="975" y="78.25" width="40" height="20" as="geometry" />
        </mxCell>
        <mxCell id="nYYp3rdrPunbKLm3PgRs-3" value="" style="rounded=1;whiteSpace=wrap;html=1;fontColor=#FF3399;" vertex="1" parent="FaWAbPz1wZYJKP-m1ZQF-1">
          <mxGeometry x="910" y="358" width="176.5" height="30" as="geometry" />
        </mxCell>
        <mxCell id="nYYp3rdrPunbKLm3PgRs-4" value="Copyright text" style="text;html=1;strokeColor=none;fillColor=none;align=center;verticalAlign=middle;whiteSpace=wrap;rounded=0;fontColor=#1A1A1A;" vertex="1" parent="FaWAbPz1wZYJKP-m1ZQF-1">
          <mxGeometry x="936.5" y="363" width="10" height="20" as="geometry" />
        </mxCell>
        <mxCell id="nYYp3rdrPunbKLm3PgRs-5" value="Social Media links" style="text;html=1;strokeColor=none;fillColor=none;align=center;verticalAlign=middle;whiteSpace=wrap;rounded=0;fontColor=#1A1A1A;" vertex="1" parent="FaWAbPz1wZYJKP-m1ZQF-1">
          <mxGeometry x="1026.5" y="363" width="67" height="20" as="geometry" />
        </mxCell>
        <mxCell id="nYYp3rdrPunbKLm3PgRs-6" value="Footer" style="text;html=1;strokeColor=none;fillColor=none;align=center;verticalAlign=middle;whiteSpace=wrap;rounded=0;fontStyle=5;fontColor=#1A1A1A;" vertex="1" parent="FaWAbPz1wZYJKP-m1ZQF-1">
          <mxGeometry x="976.5" y="358" width="40" height="20" as="geometry" />
        </mxCell>
        <mxCell id="nYYp3rdrPunbKLm3PgRs-7" value="Username&#39;s Profile" style="text;html=1;strokeColor=none;fillColor=none;align=center;verticalAlign=middle;whiteSpace=wrap;rounded=0;fontStyle=5;fontColor=#1A1A1A;" vertex="1" parent="FaWAbPz1wZYJKP-m1ZQF-1">
          <mxGeometry x="940" y="120" width="120" height="20" as="geometry" />
        </mxCell>
        <mxCell id="nYYp3rdrPunbKLm3PgRs-8" value="" style="verticalLabelPosition=bottom;shadow=0;dashed=0;align=center;html=1;verticalAlign=top;strokeWidth=1;shape=mxgraph.mockup.graphics.simpleIcon;strokeColor=#999999;fontColor=#1A1A1A;" vertex="1" parent="FaWAbPz1wZYJKP-m1ZQF-1">
          <mxGeometry x="928" y="150" width="144" height="170" as="geometry" />
        </mxCell>
        <mxCell id="nYYp3rdrPunbKLm3PgRs-9" value="" style="html=1;verticalLabelPosition=bottom;labelBackgroundColor=#ffffff;verticalAlign=top;shadow=0;dashed=0;strokeWidth=1;shape=mxgraph.ios7.misc.iphone;strokeColor=#c0c0c0;fontSize=24;" vertex="1" parent="FaWAbPz1wZYJKP-m1ZQF-1">
          <mxGeometry x="90" y="520" width="200" height="450" as="geometry" />
        </mxCell>
        <mxCell id="nYYp3rdrPunbKLm3PgRs-10" value="" style="html=1;verticalLabelPosition=bottom;labelBackgroundColor=#ffffff;verticalAlign=top;shadow=0;dashed=0;strokeWidth=2;shape=mxgraph.ios7.misc.options;fillColor=#222222;fontColor=#FF3399;" vertex="1" parent="FaWAbPz1wZYJKP-m1ZQF-1">
          <mxGeometry x="257.5" y="588.25" width="20" height="20" as="geometry" />
        </mxCell>
        <mxCell id="nYYp3rdrPunbKLm3PgRs-11" value="Logo" style="text;html=1;strokeColor=none;fillColor=none;align=center;verticalAlign=middle;whiteSpace=wrap;rounded=0;" vertex="1" parent="FaWAbPz1wZYJKP-m1ZQF-1">
          <mxGeometry x="165" y="588.25" width="40" height="20" as="geometry" />
        </mxCell>
        <mxCell id="nYYp3rdrPunbKLm3PgRs-12" value="" style="rounded=1;whiteSpace=wrap;html=1;fontColor=#FF3399;" vertex="1" parent="FaWAbPz1wZYJKP-m1ZQF-1">
          <mxGeometry x="100" y="868" width="176.5" height="30" as="geometry" />
        </mxCell>
        <mxCell id="nYYp3rdrPunbKLm3PgRs-13" value="Copyright text" style="text;html=1;strokeColor=none;fillColor=none;align=center;verticalAlign=middle;whiteSpace=wrap;rounded=0;fontColor=#1A1A1A;" vertex="1" parent="FaWAbPz1wZYJKP-m1ZQF-1">
          <mxGeometry x="126.5" y="873" width="10" height="20" as="geometry" />
        </mxCell>
        <mxCell id="nYYp3rdrPunbKLm3PgRs-14" value="Social Media links" style="text;html=1;strokeColor=none;fillColor=none;align=center;verticalAlign=middle;whiteSpace=wrap;rounded=0;fontColor=#1A1A1A;" vertex="1" parent="FaWAbPz1wZYJKP-m1ZQF-1">
          <mxGeometry x="216.5" y="873" width="67" height="20" as="geometry" />
        </mxCell>
        <mxCell id="nYYp3rdrPunbKLm3PgRs-15" value="Footer" style="text;html=1;strokeColor=none;fillColor=none;align=center;verticalAlign=middle;whiteSpace=wrap;rounded=0;fontStyle=5;fontColor=#1A1A1A;" vertex="1" parent="FaWAbPz1wZYJKP-m1ZQF-1">
          <mxGeometry x="166.5" y="868" width="40" height="20" as="geometry" />
        </mxCell>
        <mxCell id="nYYp3rdrPunbKLm3PgRs-16" value="Log In form" style="text;html=1;strokeColor=none;fillColor=none;align=center;verticalAlign=middle;whiteSpace=wrap;rounded=0;fontStyle=5;fontColor=#1A1A1A;" vertex="1" parent="FaWAbPz1wZYJKP-m1ZQF-1">
          <mxGeometry x="130" y="630" width="120" height="20" as="geometry" />
        </mxCell>
        <mxCell id="nYYp3rdrPunbKLm3PgRs-17" value="" style="verticalLabelPosition=bottom;shadow=0;dashed=0;align=center;html=1;verticalAlign=top;strokeWidth=1;shape=mxgraph.mockup.graphics.simpleIcon;strokeColor=#999999;fontColor=#1A1A1A;" vertex="1" parent="FaWAbPz1wZYJKP-m1ZQF-1">
          <mxGeometry x="118" y="660" width="144" height="170" as="geometry" />
        </mxCell>
        <mxCell id="nYYp3rdrPunbKLm3PgRs-18" value="" style="html=1;verticalLabelPosition=bottom;labelBackgroundColor=#ffffff;verticalAlign=top;shadow=0;dashed=0;strokeWidth=1;shape=mxgraph.ios7.misc.iphone;strokeColor=#c0c0c0;fontSize=24;" vertex="1" parent="FaWAbPz1wZYJKP-m1ZQF-1">
          <mxGeometry x="350" y="520" width="200" height="450" as="geometry" />
        </mxCell>
        <mxCell id="nYYp3rdrPunbKLm3PgRs-19" value="" style="html=1;verticalLabelPosition=bottom;labelBackgroundColor=#ffffff;verticalAlign=top;shadow=0;dashed=0;strokeWidth=2;shape=mxgraph.ios7.misc.options;fillColor=#222222;fontColor=#FF3399;" vertex="1" parent="FaWAbPz1wZYJKP-m1ZQF-1">
          <mxGeometry x="517.5" y="588.25" width="20" height="20" as="geometry" />
        </mxCell>
        <mxCell id="nYYp3rdrPunbKLm3PgRs-20" value="Logo" style="text;html=1;strokeColor=none;fillColor=none;align=center;verticalAlign=middle;whiteSpace=wrap;rounded=0;" vertex="1" parent="FaWAbPz1wZYJKP-m1ZQF-1">
          <mxGeometry x="425" y="588.25" width="40" height="20" as="geometry" />
        </mxCell>
        <mxCell id="nYYp3rdrPunbKLm3PgRs-21" value="" style="rounded=1;whiteSpace=wrap;html=1;fontColor=#FF3399;" vertex="1" parent="FaWAbPz1wZYJKP-m1ZQF-1">
          <mxGeometry x="360" y="868" width="176.5" height="30" as="geometry" />
        </mxCell>
        <mxCell id="nYYp3rdrPunbKLm3PgRs-22" value="Copyright text" style="text;html=1;strokeColor=none;fillColor=none;align=center;verticalAlign=middle;whiteSpace=wrap;rounded=0;fontColor=#1A1A1A;" vertex="1" parent="FaWAbPz1wZYJKP-m1ZQF-1">
          <mxGeometry x="386.5" y="873" width="10" height="20" as="geometry" />
        </mxCell>
        <mxCell id="nYYp3rdrPunbKLm3PgRs-23" value="Social Media links" style="text;html=1;strokeColor=none;fillColor=none;align=center;verticalAlign=middle;whiteSpace=wrap;rounded=0;fontColor=#1A1A1A;" vertex="1" parent="FaWAbPz1wZYJKP-m1ZQF-1">
          <mxGeometry x="476.5" y="873" width="67" height="20" as="geometry" />
        </mxCell>
        <mxCell id="nYYp3rdrPunbKLm3PgRs-24" value="Footer" style="text;html=1;strokeColor=none;fillColor=none;align=center;verticalAlign=middle;whiteSpace=wrap;rounded=0;fontStyle=5;fontColor=#1A1A1A;" vertex="1" parent="FaWAbPz1wZYJKP-m1ZQF-1">
          <mxGeometry x="426.5" y="868" width="40" height="20" as="geometry" />
        </mxCell>
        <mxCell id="nYYp3rdrPunbKLm3PgRs-25" value="Register form" style="text;html=1;strokeColor=none;fillColor=none;align=center;verticalAlign=middle;whiteSpace=wrap;rounded=0;fontStyle=5;fontColor=#1A1A1A;" vertex="1" parent="FaWAbPz1wZYJKP-m1ZQF-1">
          <mxGeometry x="390" y="630" width="120" height="20" as="geometry" />
        </mxCell>
        <mxCell id="nYYp3rdrPunbKLm3PgRs-26" value="" style="verticalLabelPosition=bottom;shadow=0;dashed=0;align=center;html=1;verticalAlign=top;strokeWidth=1;shape=mxgraph.mockup.graphics.simpleIcon;strokeColor=#999999;fontColor=#1A1A1A;" vertex="1" parent="FaWAbPz1wZYJKP-m1ZQF-1">
          <mxGeometry x="378" y="660" width="144" height="170" as="geometry" />
        </mxCell>
      </root>
    </mxGraphModel>
  </diagram>
</mxfile>
